<svg xmlns="http://www.w3.org/2000/svg" xmlns:xlink="http://www.w3.org/1999/xlink" width="25" height="20" version="1.1" viewBox="0 0 25 20"><g id="Symbols" fill="none" fill-rule="evenodd" stroke="none" stroke-width="1"><g id="Registrar-Icon"><g><rect id="Rectangle-2" width="16" height="20" x="0" y="0" fill="#282929" rx="3"/><path id="Fill-4" fill="#282929" d="M20,15.8125 C20,15.928875 20.0525,16.04 20.1465,16.1218125 L22.1465,17.8718125 C22.244,17.957125 22.372,18 22.5,18 C22.628,18 22.756,17.957125 22.8535,17.8718125 L24.8535,16.1218125 C24.9475,16.04 25,15.928875 25,15.8125 L25,4 L20,4 L20,15.8125 Z"/><path id="Rectangle-6" fill="#282929" d="M22,0 L23,0 C24.1045695,-2.02906125e-16 25,0.8954305 25,2 L25,3 L20,3 L20,2 C20,0.8954305 20.8954305,2.02906125e-16 22,0 Z"/><rect id="Rectangle-3" width="8" height="2" x="2" y="4" fill="#FFF" rx="1" transform="translate(6.000000, 5.000000) scale(1, -1) translate(-6.000000, -5.000000)"/><rect id="Rectangle-3-Copy" width="8" height="2" x="2" y="8" fill="#FFF" rx="1" transform="translate(6.000000, 9.000000) scale(1, -1) translate(-6.000000, -9.000000)"/></g></g></g></svg>